<mxfile host="app.diagrams.net" modified="2024-04-20T13:52:49.118Z" agent="Mozilla/5.0 (Windows NT 10.0; Win64; x64; rv:125.0) Gecko/20100101 Firefox/125.0" etag="Og-ZCpyo3TE6sQqv4QzG" version="24.2.7" type="github">
  <diagram name="Page-1" id="HGKSsxT8SPZ5qI8CPiSk">
    <mxGraphModel dx="1434" dy="1874" grid="1" gridSize="10" guides="1" tooltips="1" connect="1" arrows="1" fold="1" page="1" pageScale="1" pageWidth="850" pageHeight="1100" math="0" shadow="0">
      <root>
        <mxCell id="0" />
        <mxCell id="1" parent="0" />
        <mxCell id="Bu7-2WQ2ApB9IBcH1Q9g-2" value="AWS Cloud" style="sketch=0;outlineConnect=0;gradientColor=none;html=1;whiteSpace=wrap;fontSize=12;fontStyle=0;shape=mxgraph.aws4.group;grIcon=mxgraph.aws4.group_aws_cloud;strokeColor=#AAB7B8;fillColor=none;verticalAlign=top;align=left;spacingLeft=30;fontColor=#AAB7B8;dashed=0;" parent="1" vertex="1">
          <mxGeometry x="48.75" y="40" width="950" height="720" as="geometry" />
        </mxCell>
        <mxCell id="Bu7-2WQ2ApB9IBcH1Q9g-4" value="eu-west-3a" style="fillColor=none;strokeColor=#147EBA;dashed=1;verticalAlign=top;fontStyle=0;fontColor=#147EBA;whiteSpace=wrap;html=1;" parent="1" vertex="1">
          <mxGeometry x="120" y="200" width="260" height="460" as="geometry" />
        </mxCell>
        <mxCell id="Bu7-2WQ2ApB9IBcH1Q9g-5" value="eu-west-3b" style="fillColor=none;strokeColor=#147EBA;dashed=1;verticalAlign=top;fontStyle=0;fontColor=#147EBA;whiteSpace=wrap;html=1;" parent="1" vertex="1">
          <mxGeometry x="490" y="200" width="260" height="460" as="geometry" />
        </mxCell>
        <mxCell id="Bu7-2WQ2ApB9IBcH1Q9g-8" value="Public subnet" style="points=[[0,0],[0.25,0],[0.5,0],[0.75,0],[1,0],[1,0.25],[1,0.5],[1,0.75],[1,1],[0.75,1],[0.5,1],[0.25,1],[0,1],[0,0.75],[0,0.5],[0,0.25]];outlineConnect=0;gradientColor=none;html=1;whiteSpace=wrap;fontSize=12;fontStyle=0;container=1;pointerEvents=0;collapsible=0;recursiveResize=0;shape=mxgraph.aws4.group;grIcon=mxgraph.aws4.group_security_group;grStroke=0;strokeColor=#7AA116;fillColor=#F2F6E8;verticalAlign=top;align=left;spacingLeft=30;fontColor=#248814;dashed=0;" parent="1" vertex="1">
          <mxGeometry x="185" y="240" width="130" height="220" as="geometry" />
        </mxCell>
        <mxCell id="Bu7-2WQ2ApB9IBcH1Q9g-17" value="" style="outlineConnect=0;dashed=0;verticalLabelPosition=bottom;verticalAlign=top;align=center;html=1;shape=mxgraph.aws3.ec2;fillColor=#F58534;gradientColor=none;" parent="Bu7-2WQ2ApB9IBcH1Q9g-8" vertex="1">
          <mxGeometry x="26.75" y="30" width="76.5" height="93" as="geometry" />
        </mxCell>
        <mxCell id="Bu7-2WQ2ApB9IBcH1Q9g-9" value="Private subnet" style="points=[[0,0],[0.25,0],[0.5,0],[0.75,0],[1,0],[1,0.25],[1,0.5],[1,0.75],[1,1],[0.75,1],[0.5,1],[0.25,1],[0,1],[0,0.75],[0,0.5],[0,0.25]];outlineConnect=0;gradientColor=none;html=1;whiteSpace=wrap;fontSize=12;fontStyle=0;container=1;pointerEvents=0;collapsible=0;recursiveResize=0;shape=mxgraph.aws4.group;grIcon=mxgraph.aws4.group_security_group;grStroke=0;strokeColor=#00A4A6;fillColor=#E6F6F7;verticalAlign=top;align=left;spacingLeft=30;fontColor=#147EBA;dashed=0;" parent="1" vertex="1">
          <mxGeometry x="185" y="480" width="130" height="130" as="geometry" />
        </mxCell>
        <mxCell id="Bu7-2WQ2ApB9IBcH1Q9g-18" value="" style="sketch=0;outlineConnect=0;fontColor=#232F3E;gradientColor=none;fillColor=#C925D1;strokeColor=none;dashed=0;verticalLabelPosition=bottom;verticalAlign=top;align=center;html=1;fontSize=12;fontStyle=0;aspect=fixed;pointerEvents=1;shape=mxgraph.aws4.rds_instance;" parent="Bu7-2WQ2ApB9IBcH1Q9g-9" vertex="1">
          <mxGeometry x="26.75" y="31" width="78" height="78" as="geometry" />
        </mxCell>
        <mxCell id="Bu7-2WQ2ApB9IBcH1Q9g-11" value="Private subnet" style="points=[[0,0],[0.25,0],[0.5,0],[0.75,0],[1,0],[1,0.25],[1,0.5],[1,0.75],[1,1],[0.75,1],[0.5,1],[0.25,1],[0,1],[0,0.75],[0,0.5],[0,0.25]];outlineConnect=0;gradientColor=none;html=1;whiteSpace=wrap;fontSize=12;fontStyle=0;container=1;pointerEvents=0;collapsible=0;recursiveResize=0;shape=mxgraph.aws4.group;grIcon=mxgraph.aws4.group_security_group;grStroke=0;strokeColor=#00A4A6;fillColor=#E6F6F7;verticalAlign=top;align=left;spacingLeft=30;fontColor=#147EBA;dashed=0;" parent="1" vertex="1">
          <mxGeometry x="570" y="485" width="130" height="130" as="geometry" />
        </mxCell>
        <mxCell id="Bu7-2WQ2ApB9IBcH1Q9g-19" value="" style="sketch=0;outlineConnect=0;fontColor=#232F3E;gradientColor=none;fillColor=#C925D1;strokeColor=none;dashed=0;verticalLabelPosition=bottom;verticalAlign=top;align=center;html=1;fontSize=12;fontStyle=0;aspect=fixed;pointerEvents=1;shape=mxgraph.aws4.rds_instance;" parent="Bu7-2WQ2ApB9IBcH1Q9g-11" vertex="1">
          <mxGeometry x="26" y="35" width="78" height="78" as="geometry" />
        </mxCell>
        <mxCell id="Bu7-2WQ2ApB9IBcH1Q9g-42" style="edgeStyle=orthogonalEdgeStyle;rounded=0;orthogonalLoop=1;jettySize=auto;html=1;" parent="1" source="Bu7-2WQ2ApB9IBcH1Q9g-12" target="Bu7-2WQ2ApB9IBcH1Q9g-38" edge="1">
          <mxGeometry relative="1" as="geometry">
            <Array as="points">
              <mxPoint x="820" y="298" />
              <mxPoint x="820" y="500" />
            </Array>
          </mxGeometry>
        </mxCell>
        <mxCell id="Bu7-2WQ2ApB9IBcH1Q9g-59" style="edgeStyle=orthogonalEdgeStyle;rounded=0;orthogonalLoop=1;jettySize=auto;html=1;" parent="1" source="Bu7-2WQ2ApB9IBcH1Q9g-12" target="Bu7-2WQ2ApB9IBcH1Q9g-11" edge="1">
          <mxGeometry relative="1" as="geometry" />
        </mxCell>
        <mxCell id="Bu7-2WQ2ApB9IBcH1Q9g-12" value="Public subnet" style="points=[[0,0],[0.25,0],[0.5,0],[0.75,0],[1,0],[1,0.25],[1,0.5],[1,0.75],[1,1],[0.75,1],[0.5,1],[0.25,1],[0,1],[0,0.75],[0,0.5],[0,0.25]];outlineConnect=0;gradientColor=none;html=1;whiteSpace=wrap;fontSize=12;fontStyle=0;container=1;pointerEvents=0;collapsible=0;recursiveResize=0;shape=mxgraph.aws4.group;grIcon=mxgraph.aws4.group_security_group;grStroke=0;strokeColor=#7AA116;fillColor=#F2F6E8;verticalAlign=top;align=left;spacingLeft=30;fontColor=#248814;dashed=0;" parent="1" vertex="1">
          <mxGeometry x="570" y="233" width="130" height="130" as="geometry" />
        </mxCell>
        <mxCell id="Bu7-2WQ2ApB9IBcH1Q9g-16" value="" style="outlineConnect=0;dashed=0;verticalLabelPosition=bottom;verticalAlign=top;align=center;html=1;shape=mxgraph.aws3.ec2;fillColor=#F58534;gradientColor=none;" parent="Bu7-2WQ2ApB9IBcH1Q9g-12" vertex="1">
          <mxGeometry x="26.75" y="37" width="76.5" height="93" as="geometry" />
        </mxCell>
        <mxCell id="Bu7-2WQ2ApB9IBcH1Q9g-34" style="edgeStyle=orthogonalEdgeStyle;rounded=0;orthogonalLoop=1;jettySize=auto;html=1;" parent="1" source="Bu7-2WQ2ApB9IBcH1Q9g-21" target="Bu7-2WQ2ApB9IBcH1Q9g-16" edge="1">
          <mxGeometry relative="1" as="geometry" />
        </mxCell>
        <mxCell id="Bu7-2WQ2ApB9IBcH1Q9g-35" style="edgeStyle=orthogonalEdgeStyle;rounded=0;orthogonalLoop=1;jettySize=auto;html=1;" parent="1" source="Bu7-2WQ2ApB9IBcH1Q9g-21" target="Bu7-2WQ2ApB9IBcH1Q9g-17" edge="1">
          <mxGeometry relative="1" as="geometry" />
        </mxCell>
        <mxCell id="Bu7-2WQ2ApB9IBcH1Q9g-21" value="Auto Scaling" style="sketch=0;outlineConnect=0;fontColor=#232F3E;gradientColor=none;strokeColor=#232F3E;fillColor=#ffffff;dashed=0;verticalLabelPosition=bottom;verticalAlign=top;align=center;html=1;fontSize=12;fontStyle=0;aspect=fixed;shape=mxgraph.aws4.resourceIcon;resIcon=mxgraph.aws4.auto_scaling;" parent="1" vertex="1">
          <mxGeometry x="395" y="286.5" width="60" height="60" as="geometry" />
        </mxCell>
        <mxCell id="Bu7-2WQ2ApB9IBcH1Q9g-32" style="edgeStyle=orthogonalEdgeStyle;rounded=0;orthogonalLoop=1;jettySize=auto;html=1;" parent="1" source="Bu7-2WQ2ApB9IBcH1Q9g-52" target="Bu7-2WQ2ApB9IBcH1Q9g-18" edge="1">
          <mxGeometry relative="1" as="geometry" />
        </mxCell>
        <mxCell id="Bu7-2WQ2ApB9IBcH1Q9g-37" value="S3 log bucket" style="sketch=0;outlineConnect=0;fontColor=#232F3E;gradientColor=none;strokeColor=#ffffff;fillColor=#232F3E;dashed=0;verticalLabelPosition=middle;verticalAlign=bottom;align=center;html=1;whiteSpace=wrap;fontSize=10;fontStyle=1;spacing=3;shape=mxgraph.aws4.productIcon;prIcon=mxgraph.aws4.s3;" parent="1" vertex="1">
          <mxGeometry x="860" y="320" width="80" height="100" as="geometry" />
        </mxCell>
        <mxCell id="Bu7-2WQ2ApB9IBcH1Q9g-38" value="S3 code bucket" style="sketch=0;outlineConnect=0;fontColor=#232F3E;gradientColor=none;strokeColor=#ffffff;fillColor=#232F3E;dashed=0;verticalLabelPosition=middle;verticalAlign=bottom;align=center;html=1;whiteSpace=wrap;fontSize=10;fontStyle=1;spacing=3;shape=mxgraph.aws4.productIcon;prIcon=mxgraph.aws4.s3;" parent="1" vertex="1">
          <mxGeometry x="860" y="450" width="80" height="100" as="geometry" />
        </mxCell>
        <mxCell id="Bu7-2WQ2ApB9IBcH1Q9g-39" value="S3 media bucket" style="sketch=0;outlineConnect=0;fontColor=#232F3E;gradientColor=none;strokeColor=#ffffff;fillColor=#232F3E;dashed=0;verticalLabelPosition=middle;verticalAlign=bottom;align=center;html=1;whiteSpace=wrap;fontSize=10;fontStyle=1;spacing=3;shape=mxgraph.aws4.productIcon;prIcon=mxgraph.aws4.s3;" parent="1" vertex="1">
          <mxGeometry x="860" y="186.5" width="80" height="103.5" as="geometry" />
        </mxCell>
        <mxCell id="Bu7-2WQ2ApB9IBcH1Q9g-7" value="VPC" style="sketch=0;outlineConnect=0;gradientColor=none;html=1;whiteSpace=wrap;fontSize=12;fontStyle=0;shape=mxgraph.aws4.group;grIcon=mxgraph.aws4.group_vpc;strokeColor=#879196;fillColor=none;verticalAlign=top;align=left;spacingLeft=30;fontColor=#879196;dashed=0;" parent="1" vertex="1">
          <mxGeometry x="77.5" y="80" width="892.5" height="640" as="geometry" />
        </mxCell>
        <mxCell id="fyZQzoAEnd4NXPy8puEu-13" style="edgeStyle=orthogonalEdgeStyle;rounded=0;orthogonalLoop=1;jettySize=auto;html=1;" edge="1" parent="1" source="Bu7-2WQ2ApB9IBcH1Q9g-43" target="Bu7-2WQ2ApB9IBcH1Q9g-52">
          <mxGeometry relative="1" as="geometry" />
        </mxCell>
        <mxCell id="Bu7-2WQ2ApB9IBcH1Q9g-43" value="Amazon Internet Gateway" style="sketch=0;outlineConnect=0;fontColor=#232F3E;gradientColor=none;strokeColor=#ffffff;fillColor=#232F3E;dashed=0;verticalLabelPosition=middle;verticalAlign=bottom;align=center;html=1;whiteSpace=wrap;fontSize=10;fontStyle=1;spacing=3;shape=mxgraph.aws4.productIcon;prIcon=mxgraph.aws4.api_gateway;" parent="1" vertex="1">
          <mxGeometry x="400" y="40" width="80" height="120" as="geometry" />
        </mxCell>
        <mxCell id="Bu7-2WQ2ApB9IBcH1Q9g-51" style="edgeStyle=orthogonalEdgeStyle;rounded=0;orthogonalLoop=1;jettySize=auto;html=1;" parent="1" source="Bu7-2WQ2ApB9IBcH1Q9g-44" target="Bu7-2WQ2ApB9IBcH1Q9g-5" edge="1">
          <mxGeometry relative="1" as="geometry" />
        </mxCell>
        <mxCell id="fyZQzoAEnd4NXPy8puEu-17" style="edgeStyle=orthogonalEdgeStyle;rounded=0;orthogonalLoop=1;jettySize=auto;html=1;" edge="1" parent="1" source="Bu7-2WQ2ApB9IBcH1Q9g-44" target="fyZQzoAEnd4NXPy8puEu-14">
          <mxGeometry relative="1" as="geometry" />
        </mxCell>
        <mxCell id="Bu7-2WQ2ApB9IBcH1Q9g-44" value="" style="outlineConnect=0;dashed=0;verticalLabelPosition=bottom;verticalAlign=top;align=center;html=1;shape=mxgraph.aws3.route_table;fillColor=#F58536;gradientColor=none;" parent="1" vertex="1">
          <mxGeometry x="400" y="160" width="80" height="69" as="geometry" />
        </mxCell>
        <mxCell id="Bu7-2WQ2ApB9IBcH1Q9g-50" style="edgeStyle=orthogonalEdgeStyle;rounded=0;orthogonalLoop=1;jettySize=auto;html=1;" parent="1" source="Bu7-2WQ2ApB9IBcH1Q9g-44" edge="1">
          <mxGeometry relative="1" as="geometry">
            <mxPoint x="390" y="430" as="targetPoint" />
            <Array as="points">
              <mxPoint x="380" y="195" />
              <mxPoint x="380" y="249" />
              <mxPoint x="400" y="249" />
              <mxPoint x="400" y="430" />
              <mxPoint x="381" y="430" />
            </Array>
          </mxGeometry>
        </mxCell>
        <mxCell id="Bu7-2WQ2ApB9IBcH1Q9g-53" value="" style="edgeStyle=orthogonalEdgeStyle;rounded=0;orthogonalLoop=1;jettySize=auto;html=1;" parent="1" source="Bu7-2WQ2ApB9IBcH1Q9g-17" target="Bu7-2WQ2ApB9IBcH1Q9g-52" edge="1">
          <mxGeometry relative="1" as="geometry">
            <mxPoint x="250" y="363" as="sourcePoint" />
            <mxPoint x="251" y="511" as="targetPoint" />
          </mxGeometry>
        </mxCell>
        <mxCell id="Bu7-2WQ2ApB9IBcH1Q9g-56" style="edgeStyle=orthogonalEdgeStyle;rounded=0;orthogonalLoop=1;jettySize=auto;html=1;" parent="1" source="Bu7-2WQ2ApB9IBcH1Q9g-52" target="Bu7-2WQ2ApB9IBcH1Q9g-54" edge="1">
          <mxGeometry relative="1" as="geometry" />
        </mxCell>
        <mxCell id="Bu7-2WQ2ApB9IBcH1Q9g-52" value="NAT gateway" style="sketch=0;outlineConnect=0;fontColor=#232F3E;gradientColor=none;strokeColor=#232F3E;fillColor=#ffffff;dashed=0;verticalLabelPosition=bottom;verticalAlign=top;align=center;html=1;fontSize=12;fontStyle=0;aspect=fixed;shape=mxgraph.aws4.resourceIcon;resIcon=mxgraph.aws4.nat_gateway;" parent="1" vertex="1">
          <mxGeometry x="220" y="363" width="60" height="60" as="geometry" />
        </mxCell>
        <mxCell id="Bu7-2WQ2ApB9IBcH1Q9g-57" style="edgeStyle=orthogonalEdgeStyle;rounded=0;orthogonalLoop=1;jettySize=auto;html=1;" parent="1" source="Bu7-2WQ2ApB9IBcH1Q9g-54" target="Bu7-2WQ2ApB9IBcH1Q9g-18" edge="1">
          <mxGeometry relative="1" as="geometry" />
        </mxCell>
        <mxCell id="Bu7-2WQ2ApB9IBcH1Q9g-58" style="edgeStyle=orthogonalEdgeStyle;rounded=0;orthogonalLoop=1;jettySize=auto;html=1;" parent="1" source="Bu7-2WQ2ApB9IBcH1Q9g-54" edge="1">
          <mxGeometry relative="1" as="geometry">
            <mxPoint x="635" y="520" as="targetPoint" />
            <Array as="points">
              <mxPoint x="636" y="500" />
            </Array>
          </mxGeometry>
        </mxCell>
        <mxCell id="Bu7-2WQ2ApB9IBcH1Q9g-54" value="" style="sketch=0;outlineConnect=0;fontColor=#232F3E;gradientColor=none;fillColor=#8C4FFF;strokeColor=none;dashed=0;verticalLabelPosition=bottom;verticalAlign=top;align=center;html=1;fontSize=12;fontStyle=0;aspect=fixed;pointerEvents=1;shape=mxgraph.aws4.route_table;" parent="1" vertex="1">
          <mxGeometry x="409.21" y="450" width="61.58" height="60" as="geometry" />
        </mxCell>
        <mxCell id="fyZQzoAEnd4NXPy8puEu-3" style="edgeStyle=orthogonalEdgeStyle;rounded=0;orthogonalLoop=1;jettySize=auto;html=1;" edge="1" parent="1" source="fyZQzoAEnd4NXPy8puEu-1">
          <mxGeometry relative="1" as="geometry">
            <mxPoint x="550" y="-45" as="targetPoint" />
          </mxGeometry>
        </mxCell>
        <mxCell id="fyZQzoAEnd4NXPy8puEu-1" value="Amazon Route 53" style="sketch=0;outlineConnect=0;fontColor=#232F3E;gradientColor=none;strokeColor=#ffffff;fillColor=#232F3E;dashed=0;verticalLabelPosition=middle;verticalAlign=bottom;align=center;html=1;whiteSpace=wrap;fontSize=10;fontStyle=1;spacing=3;shape=mxgraph.aws4.productIcon;prIcon=mxgraph.aws4.route_53;" vertex="1" parent="1">
          <mxGeometry x="400" y="-100" width="80" height="110" as="geometry" />
        </mxCell>
        <mxCell id="fyZQzoAEnd4NXPy8puEu-5" style="edgeStyle=orthogonalEdgeStyle;rounded=0;orthogonalLoop=1;jettySize=auto;html=1;" edge="1" parent="1" source="fyZQzoAEnd4NXPy8puEu-2" target="fyZQzoAEnd4NXPy8puEu-4">
          <mxGeometry relative="1" as="geometry" />
        </mxCell>
        <mxCell id="fyZQzoAEnd4NXPy8puEu-2" value="" style="image;aspect=fixed;perimeter=ellipsePerimeter;html=1;align=center;shadow=0;dashed=0;spacingTop=3;image=img/lib/active_directory/internet_cloud.svg;" vertex="1" parent="1">
          <mxGeometry x="560" y="-60.75" width="50" height="31.5" as="geometry" />
        </mxCell>
        <mxCell id="fyZQzoAEnd4NXPy8puEu-4" value="Amazon Cloudfront" style="sketch=0;outlineConnect=0;fontColor=#232F3E;gradientColor=none;strokeColor=#ffffff;fillColor=#232F3E;dashed=0;verticalLabelPosition=middle;verticalAlign=bottom;align=center;html=1;whiteSpace=wrap;fontSize=10;fontStyle=1;spacing=3;shape=mxgraph.aws4.productIcon;prIcon=mxgraph.aws4.cloudfront;" vertex="1" parent="1">
          <mxGeometry x="680" y="-100" width="80" height="110" as="geometry" />
        </mxCell>
        <mxCell id="fyZQzoAEnd4NXPy8puEu-6" style="edgeStyle=orthogonalEdgeStyle;rounded=0;orthogonalLoop=1;jettySize=auto;html=1;entryX=0.922;entryY=0.172;entryDx=0;entryDy=0;entryPerimeter=0;" edge="1" parent="1" source="fyZQzoAEnd4NXPy8puEu-4" target="Bu7-2WQ2ApB9IBcH1Q9g-7">
          <mxGeometry relative="1" as="geometry" />
        </mxCell>
        <mxCell id="fyZQzoAEnd4NXPy8puEu-10" style="edgeStyle=orthogonalEdgeStyle;rounded=0;orthogonalLoop=1;jettySize=auto;html=1;" edge="1" parent="1" source="fyZQzoAEnd4NXPy8puEu-7">
          <mxGeometry relative="1" as="geometry">
            <mxPoint x="1100" y="370" as="targetPoint" />
          </mxGeometry>
        </mxCell>
        <mxCell id="fyZQzoAEnd4NXPy8puEu-7" value="Amazon CloudWatch" style="sketch=0;outlineConnect=0;fontColor=#232F3E;gradientColor=none;strokeColor=#ffffff;fillColor=#232F3E;dashed=0;verticalLabelPosition=middle;verticalAlign=bottom;align=center;html=1;whiteSpace=wrap;fontSize=10;fontStyle=1;spacing=3;shape=mxgraph.aws4.productIcon;prIcon=mxgraph.aws4.cloudwatch;" vertex="1" parent="1">
          <mxGeometry x="1060" y="200" width="80" height="110" as="geometry" />
        </mxCell>
        <mxCell id="fyZQzoAEnd4NXPy8puEu-8" style="edgeStyle=orthogonalEdgeStyle;rounded=0;orthogonalLoop=1;jettySize=auto;html=1;entryX=0.697;entryY=0.313;entryDx=0;entryDy=0;entryPerimeter=0;" edge="1" parent="1" source="fyZQzoAEnd4NXPy8puEu-7" target="Bu7-2WQ2ApB9IBcH1Q9g-7">
          <mxGeometry relative="1" as="geometry" />
        </mxCell>
        <mxCell id="fyZQzoAEnd4NXPy8puEu-9" value="Amazon SNS" style="sketch=0;outlineConnect=0;fontColor=#232F3E;gradientColor=none;strokeColor=#ffffff;fillColor=#232F3E;dashed=0;verticalLabelPosition=middle;verticalAlign=bottom;align=center;html=1;whiteSpace=wrap;fontSize=10;fontStyle=1;spacing=3;shape=mxgraph.aws4.productIcon;prIcon=mxgraph.aws4.sns;" vertex="1" parent="1">
          <mxGeometry x="1070" y="380" width="80" height="100" as="geometry" />
        </mxCell>
        <mxCell id="fyZQzoAEnd4NXPy8puEu-12" style="edgeStyle=orthogonalEdgeStyle;rounded=0;orthogonalLoop=1;jettySize=auto;html=1;" edge="1" parent="1" source="fyZQzoAEnd4NXPy8puEu-11">
          <mxGeometry relative="1" as="geometry">
            <mxPoint x="580" y="-70" as="targetPoint" />
          </mxGeometry>
        </mxCell>
        <mxCell id="fyZQzoAEnd4NXPy8puEu-11" value="" style="shape=actor;whiteSpace=wrap;html=1;" vertex="1" parent="1">
          <mxGeometry x="560" y="-200" width="40" height="60" as="geometry" />
        </mxCell>
        <mxCell id="fyZQzoAEnd4NXPy8puEu-14" value="Application Load Balancer" style="sketch=0;outlineConnect=0;fontColor=#232F3E;gradientColor=none;strokeColor=#ffffff;fillColor=#232F3E;dashed=0;verticalLabelPosition=middle;verticalAlign=bottom;align=center;html=1;whiteSpace=wrap;fontSize=10;fontStyle=1;spacing=3;shape=mxgraph.aws4.productIcon;prIcon=mxgraph.aws4.application_load_balancer;" vertex="1" parent="1">
          <mxGeometry x="580" y="90" width="40" height="80" as="geometry" />
        </mxCell>
        <mxCell id="fyZQzoAEnd4NXPy8puEu-16" style="edgeStyle=orthogonalEdgeStyle;rounded=0;orthogonalLoop=1;jettySize=auto;html=1;entryX=0.888;entryY=0.375;entryDx=0;entryDy=0;entryPerimeter=0;" edge="1" parent="1" source="fyZQzoAEnd4NXPy8puEu-14" target="Bu7-2WQ2ApB9IBcH1Q9g-7">
          <mxGeometry relative="1" as="geometry" />
        </mxCell>
      </root>
    </mxGraphModel>
  </diagram>
</mxfile>
